<svg xmlns="http://www.w3.org/2000/svg" style="display:none">
  <!-- Category Icons -->
  <symbol id="icon-saju" viewBox="0 0 24 24">
    <circle cx="12" cy="12" r="10" fill="none" stroke="#FF6B9D" stroke-width="1.5"/>
    <path d="M 12 4 Q 16 8 12 12 Q 8 8 12 4" fill="#FF6B9D" opacity="0.7"/>
    <path d="M 12 12 Q 16 16 12 20 Q 8 16 12 12" fill="#8B5CF6" opacity="0.7"/>
  </symbol>

  <symbol id="icon-tarot" viewBox="0 0 24 24">
    <rect x="5" y="3" width="14" height="18" rx="1" fill="none" stroke="#FF6B9D" stroke-width="1.5"/>
    <line x1="8" y1="8" x2="16" y2="8" stroke="#8B5CF6" stroke-width="1"/>
    <line x1="8" y1="12" x2="16" y2="12" stroke="#8B5CF6" stroke-width="1"/>
    <line x1="8" y1="16" x2="16" y2="16" stroke="#8B5CF6" stroke-width="1"/>
  </symbol>

  <symbol id="icon-divination" viewBox="0 0 24 24">
    <circle cx="12" cy="12" r="9" fill="none" stroke="#FF6B9D" stroke-width="1.5"/>
    <circle cx="12" cy="12" r="5" fill="none" stroke="#8B5CF6" stroke-width="1"/>
    <circle cx="12" cy="12" r="2" fill="#FF6B9D"/>
  </symbol>

  <symbol id="icon-compatibility" viewBox="0 0 24 24">
    <path d="M 7 10 Q 7 6 10 6 Q 12 6 12 8 Q 12 6 14 6 Q 17 6 17 10 Q 17 14 12 18 Q 7 14 7 10" fill="none" stroke="#FF6B9D" stroke-width="1.5" stroke-linejoin="round"/>
  </symbol>

  <symbol id="icon-astrology" viewBox="0 0 24 24">
    <circle cx="12" cy="12" r="9" fill="none" stroke="#FF6B9D" stroke-width="1.5"/>
    <circle cx="12" cy="5" r="1.5" fill="#FF6B9D"/>
    <circle cx="18" cy="8" r="1.5" fill="#FF6B9D"/>
    <circle cx="19" cy="15" r="1.5" fill="#FF6B9D"/>
    <circle cx="15" cy="19" r="1.5" fill="#FF6B9D"/>
    <circle cx="9" cy="19" r="1.5" fill="#FF6B9D"/>
    <circle cx="5" cy="15" r="1.5" fill="#FF6B9D"/>
    <circle cx="6" cy="8" r="1.5" fill="#FF6B9D"/>
  </symbol>

  <symbol id="icon-overall" viewBox="0 0 24 24">
    <path d="M 12 2 L 15 8 L 22 8 L 17 12 L 19 18 L 12 14 L 5 18 L 7 12 L 2 8 L 9 8 Z" fill="#FF6B9D" opacity="0.8"/>
  </symbol>

  <!-- Service Type Icons -->
  <symbol id="icon-phone" viewBox="0 0 24 24">
    <path d="M 5 3 L 5 21 Q 5 22 6 22 L 18 22 Q 19 22 19 21 L 19 3 Q 19 2 18 2 L 6 2 Q 5 2 5 3" fill="none" stroke="#FF6B9D" stroke-width="1.5" stroke-linejoin="round"/>
    <circle cx="12" cy="19" r="1" fill="#FF6B9D"/>
  </symbol>

  <symbol id="icon-app" viewBox="0 0 24 24">
    <rect x="4" y="2" width="16" height="20" rx="2" fill="none" stroke="#FF6B9D" stroke-width="1.5"/>
    <line x1="4" y1="5" x2="20" y2="5" stroke="#FF6B9D" stroke-width="1"/>
    <circle cx="12" cy="18" r="1" fill="#FF6B9D"/>
  </symbol>

  <symbol id="icon-ai" viewBox="0 0 24 24">
    <path d="M 12 2 L 18 6 L 18 12 Q 18 18 12 22 Q 6 18 6 12 L 6 6 Z" fill="none" stroke="#FF6B9D" stroke-width="1.5" stroke-linejoin="round"/>
    <circle cx="12" cy="12" r="2" fill="#FF6B9D"/>
  </symbol>

  <symbol id="icon-portal" viewBox="0 0 24 24">
    <circle cx="12" cy="12" r="9" fill="none" stroke="#FF6B9D" stroke-width="1.5"/>
    <path d="M 12 3 Q 18 8 12 12 Q 6 8 12 3" fill="#8B5CF6" opacity="0.6"/>
    <path d="M 12 12 Q 18 16 12 21 Q 6 16 12 12" fill="#FF6B9D" opacity="0.6"/>
  </symbol>

  <symbol id="icon-offline" viewBox="0 0 24 24">
    <path d="M 4 8 L 4 20 Q 4 21 5 21 L 19 21 Q 20 21 20 20 L 20 8" fill="none" stroke="#FF6B9D" stroke-width="1.5" stroke-linejoin="round"/>
    <path d="M 6 8 L 6 5 Q 6 4 7 4 L 17 4 Q 18 4 18 5 L 18 8" fill="none" stroke="#FF6B9D" stroke-width="1.5" stroke-linejoin="round"/>
    <line x1="9" y1="12" x2="15" y2="12" stroke="#FF6B9D" stroke-width="1"/>
  </symbol>

  <symbol id="icon-tarocafe" viewBox="0 0 24 24">
    <path d="M 6 4 L 6 18 Q 6 19 7 19 L 17 19 Q 18 19 18 18 L 18 4" fill="none" stroke="#FF6B9D" stroke-width="1.5" stroke-linejoin="round"/>
    <path d="M 8 4 Q 8 2 10 2 L 14 2 Q 16 2 16 4" fill="none" stroke="#FF6B9D" stroke-width="1.5" stroke-linejoin="round"/>
    <circle cx="12" cy="11" r="2" fill="#FF6B9D" opacity="0.7"/>
    <path d="M 12 19 L 12 21 Q 12 22 11 22 L 13 22 Q 12 22 12 21 Z" fill="#FF6B9D" opacity="0.6"/>
  </symbol>
</svg>
